<svg height="1000" version="1.2" viewBox="0 0 1000 1000" width="1000"
    xmlns="http://www.w3.org/2000/svg">
    <title>DA logo_010820-ai</title>
    <!--    <style>-->
    <!--        .s0 { fill: #1a6937 }-->
    <!--        .s1 { fill: #201d1e }-->
    <!--        .s2 { fill: none }-->
    <!--        .s3 { fill: #f69321 }-->
    <!--        .s4 { fill: #eb2028 }-->
    <!--        .s5 { fill: #0a0b0b }-->
    <!--    </style>-->
    <g id="Layer 1">
        <g id="&lt;Group&gt;">
            <g id="&lt;Group&gt;">
                <g id="&lt;Group&gt;">
                    <path class="s0"
                        d="m610.2 880q-15.8 4.7-32.1 8c-6.4-18.1-11.9-36.1-16.4-54.1-13.9-55.6-18.3-109-13.1-159q0 0 0-0.1l0.1 0.1 30.9 30.9c-1 38.2 3.7 78.4 14.1 120.1 4.5 18 10 36 16.5 54.1zm263.9-458.9c-85.8 0.1-159.4 28.3-212.8 81.7-33.5 33.5-56.9 74.3-69.9 121.8h-21.8l-7.2-7.2q-1.3-1.2-2.6-2.3c14.5-52.7 40.7-98.2 78.2-135.6 50.2-50.3 116.1-80.6 192.2-89 20.1-2.3 39 10.5 43.8 30.2q0.1 0.2 0.1 0.4z"
                        fill="#1a6937" id="&lt;Compound Path&gt;" />
                </g>
                <g id="&lt;Group&gt;">
                    <path class="s0"
                        d="m883.1 476.2q-4.3-0.1-8.6-0.1c-71.1 0-131.4 22.7-174.3 65.6-23.1 23.1-40.3 50.9-51.3 82.9h-34.6c12.3-41.2 33.2-76.9 62.5-106.2 42.6-42.6 99.5-67.9 165.9-73.9 7.3-0.7 14.8 0.8 21 4.7 13.4 8.3 18.6 22.7 19.4 27zm-221.4 384.5q-14.9 6.8-30.6 12.4c-6.3-17.5-11.6-35.1-16-52.5-8-32-12.5-63-13.4-92.7l5.1 5.1c4.8 4.7 11.1 7.3 17.8 7.3 3.7 0 7.3-0.8 10.6-2.3 1.5 24 5.5 48.9 11.9 74.6 4 15.9 8.9 32 14.6 48.1z"
                        fill="#1a6937" id="&lt;Compound Path&gt;" />
                </g>
                <g id="&lt;Group&gt;">
                    <path class="s0"
                        d="m710.6 833.7q-14.1 9.2-29 17.1-7.7-21.8-13.2-43.6c-12-47.9-14.9-92.5-9.1-132.3h33.4c-6.1 36.6-3.7 78.6 7.8 124.3q4.2 17.2 10.1 34.5zm173.9-302.7q0 0.1 0 0.2-5.2-0.2-10.3-0.2c-55.8 0-102.3 16.8-135.1 49.6-12.7 12.7-23.1 27.5-30.9 44h-35.9c9.9-25.6 24.4-48.3 43.4-67.3 34.6-34.6 81.1-54.3 135.9-58.5 18.4-1.4 33.8 13.8 32.9 32.2z"
                        fill="#1a6937" id="&lt;Compound Path&gt;" />
                </g>
                <g id="&lt;Group&gt;">
                    <path class="s0"
                        d="m449.9 634.9l-0.6-0.7h0.5q0.1 0.3 0.1 0.7zm-3.9-16.1l-5.9 5.8h-26.7c-13-47.1-36.4-87.7-69.7-121-53.5-53.5-127.2-81.8-213.2-81.8q-0.8 0-1.6 0 0-0.1 0.1-0.3c4.7-19.5 23.2-32.6 43.1-30.6 77.3 8 144.1 38.5 195 89.4 38.1 38 64.5 84.5 78.9 138.5zm-2.7 215.9q-6.7 26.8-16.2 53.7-16.4-3.3-32.3-7.9c6.5-17.9 12-35.9 16.5-53.8 10.3-41.2 15-81 14.1-118.7l31.1-31.2c5 49.7 0.6 102.7-13.2 157.9z"
                        fill="#1a6937" id="&lt;Compound Path&gt;" />
                </g>
                <g id="&lt;Group&gt;">
                    <path class="s0"
                        d="m336.6 808q-5.5 21.8-13.2 43.8-14.9-7.9-29.1-17 5.9-17.5 10.3-34.8c11.5-46 13.9-88.3 7.5-125.1h33.5c5.9 39.9 3 84.8-9 133.1zm-4.2-183.4h-36c-7.8-16.2-17.9-30.7-30.5-43.2-32.8-32.9-79.3-49.7-135.1-49.7q-6 0-12.1 0.3l-0.1-0.2c-0.8-18.4 14.6-33.6 32.9-32.4 55.6 3.9 102.8 23.7 137.8 58.6 18.8 18.9 33.3 41.3 43.1 66.6z"
                        fill="#1a6937" id="&lt;Compound Path&gt;" />
                </g>
                <g id="&lt;Group&gt;">
                    <path class="s0"
                        d="m281.6 361.3v35.7c-41.3-18-87.2-28.1-136.6-29.9q0-0.1 0.1-0.3c8.1-19.7 28.7-31.4 49.7-28.3 30.5 4.5 59.5 12.1 86.8 22.8z"
                        fill="#1a6937" id="&lt;Path&gt;" />
                    <path class="s0"
                        d="m856.3 366.5c-48.7 2-94 12.1-134.7 29.9v-35.8c26.7-10.4 55-18 84.7-22.5 21.1-3.2 41.8 8.3 49.9 28z"
                        fill="#1a6937" id="&lt;Path&gt;" />
                </g>
                <g id="&lt;Group&gt;">
                    <path class="s0"
                        d="m389 624.6h-34.9c-11-30.7-27.8-57.4-50.1-79.7-42.9-43-103.2-65.7-174.3-65.7q-4.3 0-8.7 0.1c0.9-4.3 6-18.6 19.4-27 6.3-3.8 13.7-5.3 21-4.7 66.4 6.1 123.3 31.3 165.9 73.9 28.6 28.6 49.2 63.2 61.7 103.1zm13.5 106.3c-0.9 29.7-5.4 60.8-13.4 92.8-4.4 17.5-9.8 35-16.1 52.6q-15.6-5.6-30.5-12.5c5.7-16.1 10.6-32.1 14.6-48.1 6.2-24.9 10.1-49.1 11.7-72.4 2.9 1.1 6 1.7 9.2 1.7 6.7 0 13-2.6 17.7-7.3z"
                        fill="#1a6937" id="&lt;Compound Path&gt;" />
                </g>
                <path class="s1" d="m400.7 674.9l-0.8 0.8q0-0.4-0.1-0.8z" fill="#201d1e"
                    id="&lt;Path&gt;" />
                <path class="s0"
                    d="m445.1 674.9l-20.2 20.3-22.2 22.2-13.6 13.6c-5.4 5.3-13.6 6-19.7 2.1q-1.4-0.9-2.6-2.1c-3-3.1-4.6-7.1-4.6-11.1 0-4 1.6-8.1 4.6-11.1l33.1-33.1 0.8-0.8z"
                    fill="#1a6937" id="&lt;Path&gt;" />
                <path class="s2"
                    d="m449.9 634.9l-0.6-0.7h0.5q0.1 0.3 0.1 0.7zm98.8 40h-0.1q0 0 0-0.1zm8.4-49.4l-0.9-0.9"
                    fill-rule="evenodd" id="&lt;Compound Path&gt;" />
                <path class="s0"
                    d="m480.7 665.7h-179.2c-5.6 0-10.6-3-13.3-7.4-1.5-2.4-2.4-5.3-2.4-8.4v-0.2c0-4.2 1.8-8.1 4.6-10.9 2.8-2.8 6.7-4.6 11.1-4.6h147.8l0.6 0.7 25.2 25.1z"
                    fill="#1a6937" id="&lt;Path&gt;" />
                <g id="&lt;Group&gt;">
                    <path class="s3"
                        d="m524.4 680.7q-0.5 5.9-0.8 11.9v203h-44v-207q-0.5-6.9-1.2-13.7h12.4c6.9 4.9 15 7.5 23.5 7.5 4 0 6.4-0.6 10.1-1.7z"
                        fill="#f69321" id="&lt;Path&gt;" />
                    <path class="s3"
                        d="m575.3 523.7c-15.4 25.1-27.3 52.6-35.8 82.2q-3-0.4-6-0.4c-10.9 0-21.2 4.2-28.9 11.9l-0.5 0.5c-7.7-7.5-17.8-11.7-28.6-11.7-3.9 0-7.6 0.5-11.2 1.6-8.6-30.3-20.8-58.4-36.6-84.1l26.8-19.4c8.8 14.1 18.2 28.9 25.1 44.4v-38.6h44v38.5c6.8-15.5 16.1-30.3 24.9-44.4z"
                        fill="#f69321" id="&lt;Path&gt;" />
                    <path class="s3"
                        d="m516 219l-12.6 14.1c-1 1.1-2.7 1.1-3.7 0l-12.6-14.1c-5.9-6.5-9.1-15-9.1-23.7v-25.4c0-8.8 3.2-17.2 9.1-23.8l12.6-14.1c1-1.1 2.7-1.1 3.7 0l12.6 14.1c5.9 6.6 9.1 15 9.1 23.8v25.4c0 8.7-3.2 17.2-9.1 23.7z"
                        fill="#f69321" id="&lt;Path&gt;" />
                    <g id="&lt;Group&gt;">
                        <path class="s3"
                            d="m636.4 238.9l-12.6 14.2c-1 1-2.7 1-3.7 0l-12.6-14.2c-5.9-6.5-9.1-15-9.1-23.7v-25.4c0-8.8 3.2-17.2 9.1-23.8l12.6-14.1c1-1.1 2.7-1.1 3.7 0l12.6 14.1c5.9 6.6 9.1 15 9.1 23.8v25.4c0 8.7-3.2 17.2-9.1 23.7z"
                            fill="#f69321" id="&lt;Path&gt;" />
                        <path class="s3"
                            d="m536.3 271.2l-18.9 1c-1.5 0.1-2.7-1.1-2.6-2.6l1-18.9c0.5-8.7 4.2-17 10.4-23.2l17.9-17.9c6.3-6.2 14.5-9.9 23.3-10.4l18.9-1.1c1.5 0 2.7 1.2 2.6 2.6l-1 19c-0.5 8.7-4.2 17-10.4 23.2l-17.9 17.9c-6.2 6.2-14.5 9.9-23.3 10.4z"
                            fill="#f69321" id="&lt;Path&gt;" />
                        <path class="s3"
                            d="m536.3 346l-18.9 1.1c-1.5 0.1-2.7-1.2-2.6-2.6l1-18.9c0.5-8.8 4.2-17.1 10.4-23.3l17.9-17.9c6.3-6.2 14.5-9.9 23.3-10.4l18.9-1c1.5-0.1 2.7 1.1 2.6 2.6l-1 18.9c-0.5 8.8-4.2 17-10.4 23.2l-17.9 18c-6.2 6.2-14.5 9.9-23.3 10.3z"
                            fill="#f69321" id="&lt;Path&gt;" />
                        <path class="s3"
                            d="m536.3 420.9l-18.9 1c-1.5 0.1-2.7-1.1-2.6-2.6l1-18.9c0.5-8.8 4.2-17 10.4-23.2l17.9-18c6.3-6.2 14.5-9.9 23.3-10.3l18.9-1.1c1.5-0.1 2.7 1.2 2.6 2.6l-1 18.9c-0.5 8.8-4.2 17.1-10.4 23.3l-17.9 17.9c-6.2 6.2-14.5 9.9-23.3 10.4z"
                            fill="#f69321" id="&lt;Path&gt;" />
                        <path class="s3"
                            d="m536.3 495.7l-18.9 1c-1.5 0.1-2.7-1.1-2.6-2.5l1-19c0.5-8.7 4.2-17 10.4-23.2l17.9-17.9c6.3-6.2 14.5-9.9 23.3-10.4l18.9-1c1.5-0.1 2.7 1.1 2.6 2.6l-1 18.9c-0.5 8.7-4.2 17-10.4 23.2l-17.9 17.9c-6.2 6.2-14.5 9.9-23.3 10.4z"
                            fill="#f69321" id="&lt;Path&gt;" />
                        <path class="s3"
                            d="m646.8 299.7l-18.9 1c-1.4 0.1-2.6-1.1-2.6-2.6l1.1-18.9c0.4-8.7 4.1-17 10.4-23.2l17.9-17.9c6.2-6.3 14.5-9.9 23.2-10.4l18.9-1.1c1.5 0 2.7 1.2 2.6 2.6l-1 18.9c-0.5 8.8-4.2 17.1-10.4 23.3l-17.9 17.9c-6.2 6.2-14.5 9.9-23.3 10.4z"
                            fill="#f69321" id="&lt;Path&gt;" />
                        <path class="s3"
                            d="m646.8 373.6l-18.9 1c-1.4 0.1-2.6-1.1-2.6-2.6l1.1-18.9c0.4-8.8 4.1-17.1 10.4-23.3l17.9-17.9c6.2-6.2 14.5-9.9 23.2-10.4l18.9-1c1.5-0.1 2.7 1.1 2.6 2.6l-1 18.9c-0.5 8.8-4.2 17.1-10.4 23.3l-17.9 17.9c-6.2 6.2-14.5 9.9-23.3 10.4z"
                            fill="#f69321" id="&lt;Path&gt;" />
                        <path class="s3"
                            d="m646.8 447.4l-18.9 1.1c-1.4 0-2.6-1.2-2.6-2.6l1.1-18.9c0.4-8.8 4.1-17.1 10.4-23.3l17.9-17.9c6.2-6.2 14.5-9.9 23.2-10.4l18.9-1c1.5-0.1 2.7 1.1 2.6 2.6l-1 18.9c-0.5 8.7-4.2 17-10.4 23.2l-17.9 17.9c-6.2 6.3-14.5 10-23.3 10.4z"
                            fill="#f69321" id="&lt;Path&gt;" />
                    </g>
                    <g id="&lt;Group&gt;">
                        <path class="s3"
                            d="m359 215.2v-25.4c0-8.8 3.3-17.2 9.1-23.8l12.7-14.1c1-1.1 2.7-1.1 3.6 0l12.7 14.1c5.8 6.6 9.1 15 9.1 23.8v25.4c0 8.7-3.3 17.2-9.1 23.7l-12.7 14.2c-0.9 1-2.6 1-3.6 0l-12.7-14.2c-5.8-6.5-9.1-15-9.1-23.7z"
                            fill="#f69321" id="&lt;Path&gt;" />
                        <path class="s3"
                            d="m445 260.8l-17.9-17.9c-6.2-6.2-9.9-14.5-10.4-23.2l-1.1-19c0-1.4 1.2-2.6 2.6-2.6l18.9 1.1c8.8 0.5 17.1 4.2 23.3 10.4l17.9 17.9c6.2 6.2 9.9 14.5 10.4 23.2l1 18.9c0.1 1.5-1.1 2.7-2.6 2.6l-18.9-1c-8.7-0.5-17-4.2-23.2-10.4z"
                            fill="#f69321" id="&lt;Path&gt;" />
                        <path class="s3"
                            d="m445 335.7l-17.9-18c-6.2-6.2-9.9-14.4-10.4-23.2l-1.1-18.9c0-1.5 1.2-2.7 2.6-2.6l18.9 1c8.8 0.5 17.1 4.2 23.3 10.4l17.9 17.9c6.2 6.2 9.9 14.5 10.4 23.3l1 18.9c0.1 1.4-1.1 2.7-2.6 2.6l-18.9-1.1c-8.7-0.4-17-4.1-23.2-10.3z"
                            fill="#f69321" id="&lt;Path&gt;" />
                        <path class="s3"
                            d="m445 410.5l-17.9-17.9c-6.2-6.2-9.9-14.5-10.4-23.3l-1.1-18.9c0-1.4 1.2-2.7 2.6-2.6l18.9 1.1c8.8 0.4 17.1 4.1 23.3 10.3l17.9 18c6.2 6.2 9.9 14.4 10.4 23.2l1 18.9c0.1 1.5-1.1 2.7-2.6 2.6l-18.9-1c-8.7-0.5-17-4.2-23.2-10.4z"
                            fill="#f69321" id="&lt;Path&gt;" />
                        <path class="s3"
                            d="m445 485.3l-17.9-17.9c-6.2-6.2-9.9-14.5-10.4-23.2l-1.1-18.9c0-1.5 1.2-2.7 2.6-2.6l18.9 1c8.8 0.5 17.1 4.2 23.3 10.4l17.9 17.9c6.2 6.2 9.9 14.5 10.4 23.2l1 19c0.1 1.4-1.1 2.6-2.6 2.5l-18.9-1c-8.7-0.5-17-4.2-23.2-10.4z"
                            fill="#f69321" id="&lt;Path&gt;" />
                        <path class="s3"
                            d="m334.5 289.3l-18-17.9c-6.2-6.2-9.9-14.5-10.3-23.3l-1.1-18.9c-0.1-1.4 1.2-2.6 2.6-2.6l18.9 1.1c8.8 0.5 17.1 4.1 23.3 10.4l17.9 17.9c6.2 6.2 9.9 14.5 10.4 23.2l1 18.9c0.1 1.5-1.1 2.7-2.6 2.6l-18.9-1c-8.8-0.5-17-4.2-23.2-10.4z"
                            fill="#f69321" id="&lt;Path&gt;" />
                        <path class="s3"
                            d="m334.5 363.2l-18-17.9c-6.2-6.2-9.9-14.5-10.3-23.3l-1.1-18.9c-0.1-1.5 1.2-2.7 2.6-2.6l18.9 1c8.8 0.5 17.1 4.2 23.3 10.4l17.9 17.9c6.2 6.2 9.9 14.5 10.4 23.3l1 18.9c0.1 1.5-1.1 2.7-2.6 2.6l-18.9-1c-8.8-0.5-17-4.2-23.2-10.4z"
                            fill="#f69321" id="&lt;Path&gt;" />
                        <path class="s3"
                            d="m334.5 437l-18-17.9c-6.2-6.2-9.9-14.5-10.3-23.2l-1.1-18.9c-0.1-1.5 1.2-2.7 2.6-2.6l18.9 1c8.8 0.5 17.1 4.2 23.3 10.4l17.9 17.9c6.2 6.2 9.9 14.5 10.4 23.3l1 18.9c0.1 1.4-1.1 2.6-2.6 2.6l-18.9-1.1c-8.8-0.4-17-4.1-23.2-10.4z"
                            fill="#f69321" id="&lt;Path&gt;" />
                    </g>
                </g>
                <path class="s4" d="m449.9 634.9l-0.6-0.7h0.5q0.1 0.3 0.1 0.7z" fill="#eb2028"
                    id="&lt;Path&gt;" />
                <path class="s0"
                    d="m723.3 649.9c0 4.4-1.7 8.3-4.6 11.2-2.8 2.8-6.7 4.6-11.1 4.6h-97l-4.7-4.7-18.8-18.8-7.9-8h128.4c8.7 0 15.7 7.1 15.7 15.7z"
                    fill="#1a6937" id="&lt;Path&gt;" />
                <path class="s1" d="m449.9 634.9l-0.6-0.7h0.5q0.1 0.3 0.1 0.7z" fill="#201d1e"
                    id="&lt;Compound Path&gt;" />
                <path class="s0"
                    d="m536.6 663.7q-1.1 1.1-2.1 2c-2.3 1.9-4.9 3.4-7.5 4.6-4 1.8-8.3 2.6-12.7 2.6-7.1 0-14.2-2.4-20.1-7.2q-1.1-0.9-2.1-2l-19.5-19.5-10-10-9.4-9.3q0.1-0.2 0.3-0.3c3.8-3.7 8.4-6.3 13.2-7.7 2.9-0.8 5.8-1.3 8.8-1.3 7.9 0 15.9 3 22 9q0.1 0.1 0.2 0.3z"
                    fill="#1a6937" id="&lt;Path&gt;" />
                <path class="s2" d="m557.1 625.5l-0.9-0.9" id="&lt;Compound Path&gt;" />
                <path class="s0"
                    d="m635.7 726.3q-0.5 0.5-1 0.9c-2.9 2.5-6.5 3.7-10.1 3.7-4 0-8.1-1.5-11.1-4.6l-12-12-21.3-21.3-27.4-27.3-2.8-2.8-19.2-19.3-9.4-9.4-10.1-10.1c6.1-6.1 14.1-9.2 22.2-9.2q1.7 0 3.5 0.2c6.8 0.7 13.5 3.8 18.7 9l0.5 0.5 0.9 0.9 47.1 47.1 2.3 2.3 28.2 28.3 1 0.9c6.1 6.1 6.1 16.1 0 22.2z"
                    fill="#1a6937" id="&lt;Path&gt;" />
            </g>
            <g id="&lt;Group&gt;">
                <path class="s5"
                    d="m70.6 500.1l-56.5-5.6q-3.5-0.3-5.4-2.7-1.9-2.4-1.5-5.8l1.5-16.8q1.8-17 12.7-25.3 11-8.2 27.9-6.6 15.8 1.6 24.4 12 8.5 10.3 7 26l-1.7 17.5q-0.1 0.5-0.2 1.2 0 0.6-0.3 1.1-0.7 2.1-2.6 3.7-1.9 1.6-5.2 1.3zm-4.9-15.8l1-10.2q1.1-9.8-4.7-15-5.9-5.2-15-6.1-9.7-1-16.5 3.2-6.7 4.1-7.8 14.6l-1 9.2z"
                    fill-rule="evenodd" id="&lt;Compound Path&gt;" />
                <path class="s5"
                    d="m78.3 434.2l-54.3-12.7q-3.7-0.9-5.7-3.3-2-2.5-1-6.4l5.6-24.5q0.9-3.6 3.4-4.8 2.6-1.2 5.1-0.6 0.1 0 0.2 0 0 0 0.1 0 2.5 0.7 4.1 3 1.6 2.2 0.8 5.6l-4.1 17.3 14.4 3.4 3.8-16.2q0.9-3.6 3.5-4.9 2.5-1.3 5.1-0.7 0.1 0 0.1 0 0.1 0 0.2 0.1 2.4 0.6 4 2.9 1.6 2.3 0.8 5.8l-3.8 16.2 14.9 3.5 4.3-18.3q0.9-3.5 3.4-4.8 2.6-1.2 5.1-0.6 0.1 0 0.2 0 0 0.1 0.1 0.1 2.5 0.7 4 2.9 1.6 2.2 0.8 5.6l-5.9 25.5q-0.8 3.2-3.3 5-2.4 1.7-5.8 0.9z"
                    id="&lt;Compound Path&gt;" />
                <path class="s5"
                    d="m89.2 389.6l-53.6-19.4q-3.2-1.2-4.6-3.9-1.3-2.7 0-6.2l6-16.9q3.9-10.5 12.7-15.2 8.8-4.6 19-0.9 10.4 3.7 14 13 3.5 9.2 0 19l-3.9 10.6 15.6 5.7q3.6 1.3 4.8 4 1.1 2.7 0 5.8-1.1 3-3.7 4.4-2.7 1.4-6.2 0.1zm-23-24.6l3.5-9.7q1.7-4.4-0.2-8.2-2-3.7-6.3-5.3-4.3-1.5-8.1 0.1-3.9 1.6-5.5 6.1l-3.7 9.7z"
                    fill-rule="evenodd" id="&lt;Compound Path&gt;" />
                <path class="s5"
                    d="m101.4 346.8l-40-43.1q-2.5-2.8-3.4-6.4-0.9-3.6 0.9-7.1 1.8-3.6 5.2-5 3.3-1.3 7.2-0.9l58.1 7.2q1.4 0.1 2.4 0.5 1 0.3 1.4 0.5 2.6 1.3 3.3 4 0.7 2.7-0.6 5.2-1.4 2.8-3.5 3.7-2.1 0.9-4.4 0.6l-10-1.6-12.8 25.1 7.1 7q1.8 1.7 2.4 3.9 0.5 2.2-0.9 5-1.4 2.8-4.2 3.9-2.7 1.1-5.5-0.3-0.7-0.4-1.2-0.8-0.5-0.3-0.8-0.7-0.2-0.2-0.4-0.4-0.2-0.1-0.2-0.3zm-6.7-27.4l8.7-17.2-30.5-4.9-0.1 0.2z"
                    fill-rule="evenodd" id="&lt;Compound Path&gt;" />
                <path class="s5"
                    d="m134.3 289.2l-46.9-32.4q-2.9-2.1-3.5-5-0.6-2.8 1.6-5.9l10-14.7q6.8-9.7 15.2-12.1 8.3-2.4 18.2 4.4 6.8 4.8 7.6 12 0.9 7.2-2.6 14.4l24.9-3.8q1.7-0.2 2.9 0.1 1.1 0.2 2.1 0.9 2.4 1.7 3.1 4.8 0.8 3.1-1.1 5.8-0.4 0.5-0.9 1-0.4 0.5-0.9 0.9-0.7 0.6-1.7 1-0.9 0.4-2 0.5l-35.3 2.9-0.1 0.2 18.1 12.5q3.1 2.2 3.5 5.2 0.5 2.9-1.4 5.6-1.8 2.7-4.7 3.3-2.9 0.6-6-1.5zm-18.5-31.3l6-8.6q2.4-3.3 2-6.9-0.5-3.5-4-5.9-3.6-2.5-6.9-1.6-3.4 0.8-5.8 4.2l-6 8.6z"
                    fill-rule="evenodd" id="&lt;Compound Path&gt;" />
                <path class="s5"
                    d="m173.2 236.5l-38.2-33.6-7.3 8.3q-2.3 2.7-4.9 2.5-2.6-0.2-4.5-1.8-0.1 0-0.1-0.1-0.1 0-0.2-0.1-1.9-1.7-2.4-4.5-0.5-2.8 1.7-5.2l24.5-28.1q2.3-2.4 5.1-2.3 2.9 0.1 4.8 1.8 0.1 0.1 0.1 0.1 0.1 0 0.2 0.1 1.8 1.8 2.3 4.3 0.5 2.6-1.9 5.3l-7.3 8.2 38.2 33.7q2.9 2.5 3 5.5 0.1 3-2.1 5.4-2.1 2.5-5.1 2.8-3 0.3-5.8-2.2z"
                    id="&lt;Compound Path&gt;" />
                <path class="s5"
                    d="m193.5 209.9l-29-49.6q-0.1-0.2-0.3-0.5-0.1-0.3-0.2-0.6-0.9-2.4-0.2-5.7 0.7-3.2 3.4-5.5 3-2.5 6.5-2.5 3.6 0 6 1.6l34.8 23.2 0.1-0.2-16.4-38.5q-1.1-2.5-0.4-6.1 0.7-3.5 3.5-5.9 2.8-2.3 6.1-2.3 3.3-0.1 5.6 1.2 0.2 0.2 0.5 0.3 0.3 0.2 0.5 0.4l43.4 37.5q0.4 0.3 0.7 0.7 0.3 0.3 0.6 0.6 2.1 2.6 1.7 5.5-0.4 2.8-2.7 4.8-3 2.4-5.5 2.2-2.4-0.2-5.1-2.6l-31.1-28-0.1 0.2 17.8 40.4q0.3 0.5 0.4 1 0.1 0.5 0.2 0.9 0.5 1.8-0.1 3.8-0.5 2-3 4-2.4 2.1-4.5 2.2-2.1 0.2-3.7-0.5-0.5-0.2-0.9-0.4-0.5-0.3-0.8-0.5l-36.6-25-0.2 0.2 21.9 35.5q1.9 3.2 1.6 5.6-0.2 2.5-3.2 4.9-2.3 2-5.2 1.9-2.9-0.1-5-2.7-0.3-0.3-0.6-0.7-0.3-0.3-0.4-0.7z"
                    id="&lt;Compound Path&gt;" />
                <path class="s5"
                    d="m263.6 155.4l-28.7-47.8q-1.9-3.2-1.5-6.3 0.3-3.2 3.8-5.3l21.5-13q3.2-1.8 5.9-0.8 2.6 0.9 4 3.2 0 0.1 0.1 0.1 0 0.1 0 0.2 1.2 2.2 0.8 4.9-0.5 2.7-3.5 4.5l-15.4 9.1 7.6 12.7 14.3-8.6q3.3-1.8 6-0.9 2.7 1 4 3.2 0.1 0.1 0.1 0.2 0 0 0.1 0.1 1.2 2.2 0.7 5-0.6 2.7-3.6 4.5l-14.3 8.6 7.9 13.1 16.1-9.6q3.2-1.8 5.8-0.9 2.6 1 4 3.3 0.1 0.1 0.1 0.1 0 0 0.1 0.1 1.2 2.3 0.7 4.9-0.6 2.7-3.5 4.5l-22.5 13.4q-2.8 1.8-5.8 1.2-3-0.6-4.7-3.6z"
                    id="&lt;Compound Path&gt;" />
                <path class="s5"
                    d="m302.3 132.2l-22.8-53q-1.5-3.4-0.3-6.1 1.2-2.8 4.1-4.1 0.6-0.2 1.3-0.3 0.7-0.2 1.5-0.2 1.1 0.1 2.3 0.3 1.3 0.3 2.1 0.8l46.5 26.6 0.2-0.1-15.2-35.2q-1.5-3.5-0.3-6.2 1.2-2.7 4.2-4 3-1.3 5.8-0.3 2.8 1 4.3 4.6l22.8 52.8q1.6 3.6 0.4 6.3-1.2 2.8-4.2 4-0.6 0.3-1.3 0.4-0.7 0.1-1.5 0.2-1.1 0-2.3-0.3-1.2-0.2-2.1-0.7l-46.3-26.3-0.2 0.1 15 34.7q1.5 3.6 0.3 6.3-1.2 2.7-4.2 4-3 1.3-5.8 0.3-2.8-1-4.3-4.5z"
                    id="&lt;Compound Path&gt;" />
                <path class="s5"
                    d="m377.6 102.9l-13.6-49.1-10.7 3q-3.4 1-5.4-0.5-2.1-1.6-2.9-4 0-0.1 0-0.2 0 0-0.1-0.1-0.7-2.6 0.5-5.1 1.1-2.6 4.2-3.5l36-10.1q3.1-0.8 5.5 0.8 2.3 1.7 3 4.2 0 0.1 0 0.1 0.1 0.1 0.1 0.2 0.6 2.5-0.4 4.9-1 2.4-4.5 3.4l-10.6 2.9 13.6 49q1 3.7-0.5 6.3-1.6 2.5-4.7 3.4-3.1 0.8-5.8-0.5-2.6-1.4-3.6-5z"
                    id="&lt;Compound Path&gt;" />
                <path class="s5"
                    d="m444.4 85.8q-10.4-10-11.5-25.7-1.1-15.8 7.8-27.2 8.9-11.4 24.4-12.5 15.3-1.1 25.8 9.2 10.5 10.2 11.6 25.6 1.1 15.7-7.8 27.1-8.8 11.4-24.4 12.5-15.4 1.1-25.9-9zm38.7-12.9q4.2-7.4 3.6-16.6-0.6-9.2-5.9-15.9-5.2-6.7-14.7-6-9.6 0.6-13.8 8-4.3 7.3-3.7 16.5 0.7 9.2 5.9 15.9 5.2 6.7 14.8 6 9.6-0.5 13.8-7.9z"
                    fill-rule="evenodd" id="&lt;Compound Path&gt;" />
                <path class="s5"
                    d="m509.5 85l3.6-56.9q0.2-3.1 2.4-5.3 2.3-2.3 6-2l25.9 1.5q3.4 0.3 5 2.6 1.5 2.3 1.4 4.9 0 0.1 0 0.2 0 0 0 0.1-0.3 2.6-2.1 4.5-1.8 2-5.1 1.8l-18.7-1.3-0.9 14.8 15.7 1q3.6 0.3 5.3 2.5 1.7 2.3 1.5 4.9-0.1 2.7-2.1 4.8-2 2.1-5.6 1.8l-15.7-0.9-1.4 22q-0.2 3.8-2.5 5.7-2.3 1.8-5.6 1.6-3.2-0.2-5.3-2.3-2-2.2-1.8-5.9z"
                    id="&lt;Compound Path&gt;" />
                <path class="s5"
                    d="m576.7 88.4l33.4-48.5q2.1-3 5.5-4.6 3.3-1.7 7.1-0.8 3.9 1.1 6 4 2 3 2.4 6.9l5.7 58.3q0.1 1.4 0 2.4-0.1 1-0.2 1.5-0.7 2.9-3.2 4.1-2.5 1.3-5.2 0.6-3.1-0.8-4.4-2.7-1.3-1.8-1.5-4.2l-0.6-10.1-27.3-6.9-5.3 8.4q-1.3 2.1-3.3 3.1-2.1 1-5.1 0.3-3-0.8-4.6-3.3-1.7-2.4-1-5.4 0.2-0.8 0.5-1.3 0.2-0.6 0.6-1 0.1-0.2 0.2-0.4 0.1-0.3 0.3-0.3zm25.3-12.5l18.7 4.7-1.9-30.8h-0.2z"
                    fill-rule="evenodd" id="&lt;Compound Path&gt;" />
                <path class="s5"
                    d="m705.7 97q4.3 1.9 5.3 5 0.9 3.1-1 7.5-5.8 13.5-17.8 19-12.1 5.4-26.1-0.6-14.1-6.1-18.8-19.8-4.8-13.7 1.4-28.2 6.3-14.5 19.4-20.6 13.2-6 27.4 0.1 10.5 4.5 16.2 11.7 5.7 7.2 3.9 12.1 0 0.1 0 0.2 0 0-0.1 0.1-1.3 3-3.7 4.1-2.4 1-4.9 0-1.4-0.7-2.5-1.6-1-1-1.8-2.2-0.5-0.7-0.9-1.4-0.5-0.7-1-1.6-1.4-2-3.8-4.3-2.3-2.3-6.9-4.2-8.8-3.8-15.9 0.8-7.2 4.6-10.8 13.1-3.7 8.5-2.1 16.8 1.6 8.3 10.4 12.1 0.7 0.3 1.3 0.6 0.7 0.2 1.4 0.4 5.2 1.4 10.8-0.2 5.6-1.6 8.7-8.7l-9.5-4.1q-3-1.1-4-3.7-1-2.7 0.2-5.6 1.3-3 4-3.9 2.7-0.8 5.3 0.3z"
                    id="&lt;Compound Path&gt;" />
                <path class="s5"
                    d="m703.9 136.1l29.9-48.6q1.8-3 4.7-3.8 2.8-0.7 6 1.2l15.3 9.3q10 6.3 12.8 14.5 2.9 8.2-3.4 18.4-4.3 7-11.5 8.3-7.2 1.2-14.5-1.8l5.1 24.6q0.3 1.6 0.1 2.8-0.2 1.2-0.8 2.2-1.5 2.5-4.6 3.4-3 0.9-5.9-0.8-0.5-0.4-1-0.8-0.5-0.4-0.9-0.9-0.7-0.7-1.2-1.6-0.4-0.9-0.6-2l-4.8-35.1-0.2-0.1-11.5 18.7q-2 3.3-5 3.9-2.9 0.6-5.6-1.1-2.8-1.7-3.6-4.6-0.8-2.9 1.2-6.1zm30.2-20.1l8.9 5.5q3.5 2.3 7 1.6 3.5-0.6 5.7-4.3 2.3-3.7 1.2-7-1-3.3-4.5-5.5l-8.9-5.6z"
                    fill-rule="evenodd" id="&lt;Compound Path&gt;" />
                <path class="s5"
                    d="m750.6 166l34.6-46.1q2.2-3 5.2-3.4 3-0.3 5.6 1.7 2.5 1.9 3.1 4.9 0.5 2.9-1.8 6l-34.6 46.1q-2.3 3.1-5.2 3.4-3 0.3-5.6-1.7-2.6-1.9-3.1-4.8-0.6-3 1.7-6z"
                    id="&lt;Compound Path&gt;" />
                <path class="s5"
                    d="m787 156.5q10.6-11.6 25-13 14.4-1.4 25.8 9.1 1.4 1.2 2.9 2.9 1.6 1.7 3 3.7 2.9 4.1 4.3 8.7 1.3 4.5-1.7 7.8-1.9 2-4.5 2.4-2.7 0.3-4.8-1.6-0.4-0.4-0.8-0.9-0.3-0.4-0.6-0.8-0.5-0.9-0.9-1.8-0.5-0.9-0.9-2-0.9-1.6-2.2-3.5-1.2-1.9-3.6-4.1-7-6.4-15.2-4.6-8.1 1.8-14.4 8.7-6.1 6.7-7.1 14.9-0.9 8.2 6 14.5 2.4 2.2 4.6 3.3 2.1 1.1 4 1.7 1.4 0.5 2.7 0.9 1.2 0.4 2.2 1 0.4 0.2 0.7 0.4 0.3 0.2 0.6 0.5 1.7 1.5 1.9 3.5 0.2 1.9-0.3 3.6-0.2 0.8-0.6 1.4-0.3 0.6-0.7 1.1-3.3 3.6-8.2 2.6-4.8-1-9.1-3.7-2.3-1.3-4.2-2.8-2-1.5-3.4-2.8-11.4-10.4-11.3-24.9 0.1-14.5 10.7-26.1z"
                    id="&lt;Compound Path&gt;" />
                <path class="s5"
                    d="m830.4 206.8l28.2-22.8q2.9-2.3 5.8-1.9 3 0.4 5 2.9 2.1 2.5 1.9 5.5-0.2 3-3.2 5.4l-27.5 22.3q-5.6 4.4-6.7 10.8-1.1 6.3 3.4 11.9 4.3 5.4 11 5.6 6.6 0.2 11.8-4.1l27.6-22.3q3-2.4 5.9-2 3 0.4 5 3 2 2.5 1.8 5.5-0.2 2.9-3.2 5.4l-28.1 22.7q-10 8.1-22.4 6.4-12.3-1.7-20.2-11.4-8-9.9-7.1-22.3 0.9-12.4 10.9-20.5z"
                    id="&lt;Compound Path&gt;" />
                <path class="s5"
                    d="m856.8 274.1l48.3-29.7q3.2-2 6.1-1.2 2.8 0.8 4.5 3.6 1.7 2.7 1.2 5.6-0.6 3-3.9 5l-43.4 26.7 9.5 15.4q1.7 3 1 5.4-0.7 2.5-2.5 4-0.2 0.2-0.4 0.3-0.2 0.2-0.4 0.3h-0.1l-0.1 0.1q-2.2 1.2-4.9 0.6-2.8-0.5-4.5-3.4l-13.3-21.6q-2-3.2-1.2-6.1 0.8-3 4-4.9z"
                    id="&lt;Compound Path&gt;" />
                <path class="s5"
                    d="m878 311.9l45.4-23.2-5.1-9.8q-1.7-3.1-0.5-5.5 1.1-2.3 3.3-3.6 0.1 0 0.1 0 0.1-0.1 0.2-0.1 2.3-1.2 5.1-0.6 2.7 0.6 4.2 3.4l17.1 33.2q1.4 3 0.3 5.6-1.1 2.6-3.5 3.8-0.1 0.1-0.1 0.1-0.1 0-0.1 0-2.3 1.1-4.9 0.6-2.6-0.5-4.2-3.6l-5-9.9-45.3 23.2q-3.5 1.7-6.3 0.7-2.8-1-4.2-3.9-1.5-2.9-0.7-5.8 0.8-2.8 4.2-4.5z"
                    id="&lt;Compound Path&gt;" />
                <path class="s5"
                    d="m914.3 335.6l34.2-12q3.6-1.3 6.2 0.1 2.6 1.4 3.7 4.4 1.1 3.1-0.1 5.8-1.2 2.8-4.8 4l-33.4 11.8q-6.7 2.3-9.9 7.9-3.2 5.6-0.9 12.4 2.3 6.5 8.5 8.9 6.2 2.4 12.5 0.2l33.6-11.8q3.5-1.2 6.2 0.1 2.6 1.4 3.7 4.5 1 3-0.2 5.8-1.2 2.7-4.8 4l-34.1 12q-12.2 4.2-23.2-1.5-11.1-5.8-15.3-17.6-4.2-12 0.8-23.4 5-11.3 17.2-15.6z"
                    id="&lt;Compound Path&gt;" />
                <path class="s5"
                    d="m915.8 407.8l56-10.9q3.5-0.7 5.9 0.9 2.5 1.5 3.2 5.2l3.6 17.5q2.1 11.6-2 19.3-4.1 7.6-15.8 9.9-8.2 1.6-13.9-2.8-5.8-4.5-8.5-11.9l-14.7 20.4q-1 1.4-2 2-1 0.7-2.1 0.9-2.9 0.6-5.7-1.1-2.7-1.6-3.4-4.9-0.1-0.6-0.1-1.2 0-0.7 0.1-1.3 0-1 0.4-1.9 0.3-1 1-1.8l22.6-27.4-0.1-0.2-21.6 4.2q-3.8 0.8-6.2-1-2.4-1.7-3-4.9-0.6-3.2 1-5.7 1.5-2.6 5.2-3.3zm35.3 8.6l2 10.3q0.7 4.1 3.5 6.2 2.9 2.1 7.1 1.3 4.2-0.8 6-3.8 1.7-3.1 0.9-7.1l-1.9-10.3z"
                    fill-rule="evenodd" id="&lt;Compound Path&gt;" />
                <path class="s5"
                    d="m926 462.1l55.6-4.2q3.7-0.3 6.4 1.5 2.6 1.7 2.9 5.8l2 25q0.2 3.7-1.9 5.6-2 2-4.7 2.2-0.1 0-0.1 0-0.1 0-0.2 0-2.5 0.1-4.7-1.6-2.2-1.7-2.5-5.1l-1.2-17.8-14.8 1.1 1.3 16.6q0.1 3.7-1.9 5.7-2 2-4.7 2.2-0.1 0-0.1 0-0.1 0-0.2 0-2.5 0.1-4.7-1.6-2.2-1.7-2.5-5.3l-1.2-16.5-15.3 1.1 1.4 18.7q0.2 3.7-1.9 5.6-2 1.9-4.7 2.1-0.1 0-0.1 0-0.1 0-0.2 0.1-2.5 0-4.7-1.6-2.1-1.7-2.4-5.1l-1.9-26.1q-0.3-3.4 1.6-5.8 1.8-2.3 5.3-2.6z"
                    id="&lt;Compound Path&gt;" />
            </g>
            <g id="&lt;Group&gt;">
                <path class="s5"
                    d="m454.8 977l-9.2-1 2.9-25.3 0.5-4.1 0.7-4.5q-2.5 2-3.5 2.6l-5.5 3.5-3.8-6.1 15.3-9.6 7.6 0.9z"
                    id="&lt;Compound Path&gt;" />
                <path class="s5"
                    d="m483.5 934.3q6.3 0.3 10.1 3.3 3.7 3 3.5 7.9-0.1 3.3-2 5.9-2 2.5-6.2 4.4 4.8 2.9 6.8 5.8 2.1 3 1.9 6.4-0.2 5.4-4.5 8.5-4.4 3.1-11.3 2.9-7.2-0.3-11.2-3.5-4-3.3-3.8-8.9 0.2-3.7 2.3-6.5 2.1-2.9 6.6-4.9-3.7-2.5-5.2-5.3-1.6-2.8-1.4-6 0.2-4.7 4.2-7.4 4-2.8 10.2-2.6zm-8.1 32.5q-0.1 2.6 1.7 4.1 1.7 1.5 4.9 1.6 3.4 0.2 5.2-1.2 1.7-1.5 1.8-3.9 0.1-2-1.5-3.8-1.6-1.8-5.4-4-6.5 2.7-6.7 7.2zm7.8-25.7q-2.3-0.1-3.8 1.1-1.5 1.1-1.6 3.2-0.1 1.8 1 3.2 1.1 1.5 4.1 3.1 3-1.2 4.2-2.6 1.2-1.4 1.3-3.3 0.1-2.1-1.4-3.3-1.4-1.3-3.8-1.4z"
                    fill-rule="evenodd" id="&lt;Compound Path&gt;" />
                <path class="s5"
                    d="m530.9 953.2q0.5 12.9-4.8 19.5-5.2 6.6-16.3 7-3.9 0.1-5.9-0.3l-0.3-7.4q2.6 0.5 5.4 0.4 4.6-0.1 7.6-1.6 2.9-1.5 4.4-4.4 1.5-3 1.5-8.2l-0.3 0.1q-1.7 2.8-3.9 4.1-2.2 1.2-5.7 1.3-5.7 0.2-9.1-3.4-3.4-3.5-3.7-10.1-0.2-7 3.6-11.3 3.9-4.2 10.8-4.4 4.9-0.2 8.6 2 3.7 2.1 5.8 6.4 2.1 4.3 2.3 10.3zm-16.2-11.3q-2.9 0.1-4.5 2.1-1.5 2.1-1.4 5.8 0.1 3.2 1.6 5 1.6 1.8 4.6 1.7 2.8-0.1 4.7-2 2-1.9 1.9-4.3-0.1-3.6-2.1-6-1.9-2.4-4.8-2.3z"
                    fill-rule="evenodd" id="&lt;Compound Path&gt;" />
                <path class="s5"
                    d="m546.4 932.1q6.2-0.7 10.4 1.8 4.1 2.4 4.7 7.2 0.3 3.4-1.2 6.2-1.6 2.8-5.5 5.3 5.2 2.1 7.6 4.7 2.5 2.6 2.8 6 0.6 5.4-3.2 9.1-3.9 3.8-10.7 4.5-7.2 0.8-11.6-1.8-4.4-2.6-5-8.2-0.5-3.7 1.2-6.8 1.7-3.1 5.8-5.8-4-2-5.9-4.5-1.9-2.5-2.3-5.7-0.5-4.7 3.1-8 3.5-3.3 9.8-4zm0.6 6.8q-2.3 0.2-3.6 1.6-1.3 1.4-1.1 3.4 0.2 1.8 1.5 3.1 1.3 1.3 4.5 2.4 2.7-1.7 3.7-3.2 1-1.6 0.8-3.5-0.2-2-1.8-3-1.6-1.1-4-0.8zm-3.9 26.6q0.3 2.5 2.3 3.8 1.9 1.2 5 0.9 3.4-0.4 5-2.1 1.5-1.6 1.3-4.1-0.3-2-2.1-3.5-1.9-1.6-5.9-3.1-6.1 3.6-5.6 8.1z"
                    fill-rule="evenodd" id="&lt;Compound Path&gt;" />
            </g>
        </g>
    </g>
</svg>